o SM_Bin
v 22.000 0.000 0.000
v 17.798 12.931 0.000
v 6.798 20.923 0.000
v -6.798 20.923 0.000
v -17.798 12.931 0.000
v -22.000 0.000 0.000
v -17.798 -12.931 0.000
v -6.798 -20.923 0.000
v 6.798 -20.923 0.000
v 17.798 -12.931 0.000
v 22.000 0.000 70.000
v 17.798 12.931 70.000
v 6.798 20.923 70.000
v -6.798 20.923 70.000
v -17.798 12.931 70.000
v -22.000 0.000 70.000
v -17.798 -12.931 70.000
v -6.798 -20.923 70.000
v 6.798 -20.923 70.000
v 17.798 -12.931 70.000
v 24.000 0.000 70.000
v 19.416 14.107 70.000
v 7.416 22.825 70.000
v -7.416 22.825 70.000
v -19.416 14.107 70.000
v -24.000 0.000 70.000
v -19.416 -14.107 70.000
v -7.416 -22.825 70.000
v 7.416 -22.825 70.000
v 19.416 -14.107 70.000
v 24.000 0.000 78.000
v 19.416 14.107 78.000
v 7.416 22.825 78.000
v -7.416 22.825 78.000
v -19.416 14.107 78.000
v -24.000 0.000 78.000
v -19.416 -14.107 78.000
v -7.416 -22.825 78.000
v 7.416 -22.825 78.000
v 19.416 -14.107 78.000
usemtl binbody
f 1 2 12 11
f 2 3 13 12
f 3 4 14 13
f 4 5 15 14
f 5 6 16 15
f 6 7 17 16
f 7 8 18 17
f 8 9 19 18
f 9 10 20 19
f 10 1 11 20
f 10 9 8 7 6 5 4 3 2 1
f 11 12 13 14 15 16 17 18 19 20
usemtl metal
f 21 22 32 31
f 22 23 33 32
f 23 24 34 33
f 24 25 35 34
f 25 26 36 35
f 26 27 37 36
f 27 28 38 37
f 28 29 39 38
f 29 30 40 39
f 30 21 31 40
f 30 29 28 27 26 25 24 23 22 21
f 31 32 33 34 35 36 37 38 39 40
