o SM_BusShelter
v -146.000 -56.000 0.000
v -134.000 -56.000 0.000
v -134.000 -44.000 0.000
v -146.000 -44.000 0.000
v -146.000 -56.000 230.000
v -134.000 -56.000 230.000
v -134.000 -44.000 230.000
v -146.000 -44.000 230.000
v 134.000 -56.000 0.000
v 146.000 -56.000 0.000
v 146.000 -44.000 0.000
v 134.000 -44.000 0.000
v 134.000 -56.000 230.000
v 146.000 -56.000 230.000
v 146.000 -44.000 230.000
v 134.000 -44.000 230.000
v -160.000 -70.000 230.000
v 160.000 -70.000 230.000
v 160.000 70.000 230.000
v -160.000 70.000 230.000
v -160.000 -70.000 242.000
v 160.000 -70.000 242.000
v 160.000 70.000 242.000
v -160.000 70.000 242.000
v -150.000 -58.000 20.000
v 150.000 -58.000 20.000
v 150.000 -52.000 20.000
v -150.000 -52.000 20.000
v -150.000 -58.000 220.000
v 150.000 -58.000 220.000
v 150.000 -52.000 220.000
v -150.000 -52.000 220.000
usemtl metal
f 1 4 3 2
f 5 6 7 8
f 1 2 6 5
f 2 3 7 6
f 3 4 8 7
f 4 1 5 8
f 9 12 11 10
f 13 14 15 16
f 9 10 14 13
f 10 11 15 14
f 11 12 16 15
f 12 9 13 16
usemtl shelterroof
f 17 20 19 18
f 21 22 23 24
f 17 18 22 21
f 18 19 23 22
f 19 20 24 23
f 20 17 21 24
usemtl glasspanel
f 25 28 27 26
f 29 30 31 32
f 25 26 30 29
f 26 27 31 30
f 27 28 32 31
f 28 25 29 32
