o SM_HouseGable
v -160.000 -130.000 0.000
v 160.000 -130.000 0.000
v 160.000 130.000 0.000
v -160.000 130.000 0.000
v -160.000 -130.000 180.000
v 160.000 -130.000 180.000
v 160.000 130.000 180.000
v -160.000 130.000 180.000
v -170.000 -150.000 180.000
v 170.000 -150.000 180.000
v 170.000 150.000 180.000
v -170.000 150.000 180.000
v -170.000 0.000 300.000
v 170.000 0.000 300.000
usemtl wall
f 1 4 3 2
f 5 6 7 8
f 1 2 6 5
f 2 3 7 6
f 3 4 8 7
f 4 1 5 8
usemtl roof
f 9 10 14 13
f 11 12 13 14
f 12 9 13
f 10 11 14
f 9 12 11 10
