o SM_HouseFlat
v -150.000 -150.000 0.000
v 150.000 -150.000 0.000
v 150.000 150.000 0.000
v -150.000 150.000 0.000
v -150.000 -150.000 240.000
v 150.000 -150.000 240.000
v 150.000 150.000 240.000
v -150.000 150.000 240.000
v -155.000 -155.000 240.000
v 155.000 -155.000 240.000
v 155.000 155.000 240.000
v -155.000 155.000 240.000
v -155.000 -155.000 260.000
v 155.000 -155.000 260.000
v 155.000 155.000 260.000
v -155.000 155.000 260.000
usemtl wall
f 1 4 3 2
f 5 6 7 8
f 1 2 6 5
f 2 3 7 6
f 3 4 8 7
f 4 1 5 8
usemtl roof
f 9 12 11 10
f 13 14 15 16
f 9 10 14 13
f 10 11 15 14
f 11 12 16 15
f 12 9 13 16
