o SM_LampPost
v 12.000 0.000 0.000
v 9.708 7.053 0.000
v 3.708 11.413 0.000
v -3.708 11.413 0.000
v -9.708 7.053 0.000
v -12.000 0.000 0.000
v -9.708 -7.053 0.000
v -3.708 -11.413 0.000
v 3.708 -11.413 0.000
v 9.708 -7.053 0.000
v 12.000 0.000 25.000
v 9.708 7.053 25.000
v 3.708 11.413 25.000
v -3.708 11.413 25.000
v -9.708 7.053 25.000
v -12.000 0.000 25.000
v -9.708 -7.053 25.000
v -3.708 -11.413 25.000
v 3.708 -11.413 25.000
v 9.708 -7.053 25.000
v 6.000 0.000 25.000
v 4.243 4.243 25.000
v 0.000 6.000 25.000
v -4.243 4.243 25.000
v -6.000 0.000 25.000
v -4.243 -4.243 25.000
v -0.000 -6.000 25.000
v 4.243 -4.243 25.000
v 6.000 0.000 380.000
v 4.243 4.243 380.000
v 0.000 6.000 380.000
v -4.243 4.243 380.000
v -6.000 0.000 380.000
v -4.243 -4.243 380.000
v -0.000 -6.000 380.000
v 4.243 -4.243 380.000
v 0.000 -4.000 370.000
v 80.000 -4.000 370.000
v 80.000 4.000 370.000
v 0.000 4.000 370.000
v 0.000 -4.000 378.000
v 80.000 -4.000 378.000
v 80.000 4.000 378.000
v 0.000 4.000 378.000
v 52.500 -8.000 360.000
v 97.500 -8.000 360.000
v 97.500 8.000 360.000
v 52.500 8.000 360.000
v 52.500 -8.000 372.000
v 97.500 -8.000 372.000
v 97.500 8.000 372.000
v 52.500 8.000 372.000
usemtl pole
f 1 2 12 11
f 2 3 13 12
f 3 4 14 13
f 4 5 15 14
f 5 6 16 15
f 6 7 17 16
f 7 8 18 17
f 8 9 19 18
f 9 10 20 19
f 10 1 11 20
f 10 9 8 7 6 5 4 3 2 1
f 11 12 13 14 15 16 17 18 19 20
f 21 22 30 29
f 22 23 31 30
f 23 24 32 31
f 24 25 33 32
f 25 26 34 33
f 26 27 35 34
f 27 28 36 35
f 28 21 29 36
f 28 27 26 25 24 23 22 21
f 29 30 31 32 33 34 35 36
f 37 40 39 38
f 41 42 43 44
f 37 38 42 41
f 38 39 43 42
f 39 40 44 43
f 40 37 41 44
usemtl lamphead
f 45 48 47 46
f 49 50 51 52
f 45 46 50 49
f 46 47 51 50
f 47 48 52 51
f 48 45 49 52
