o SM_TreeConifer
v 12.000 0.000 0.000
v 8.485 8.485 0.000
v 0.000 12.000 0.000
v -8.485 8.485 0.000
v -12.000 0.000 0.000
v -8.485 -8.485 0.000
v -0.000 -12.000 0.000
v 8.485 -8.485 0.000
v 12.000 0.000 110.000
v 8.485 8.485 110.000
v 0.000 12.000 110.000
v -8.485 8.485 110.000
v -12.000 0.000 110.000
v -8.485 -8.485 110.000
v -0.000 -12.000 110.000
v 8.485 -8.485 110.000
v 130.000 0.000 100.000
v 105.172 76.412 100.000
v 40.172 123.637 100.000
v -40.172 123.637 100.000
v -105.172 76.412 100.000
v -130.000 0.000 100.000
v -105.172 -76.412 100.000
v -40.172 -123.637 100.000
v 40.172 -123.637 100.000
v 105.172 -76.412 100.000
v 0.000 0.000 300.000
v 95.000 0.000 240.000
v 76.857 55.840 240.000
v 29.357 90.350 240.000
v -29.357 90.350 240.000
v -76.857 55.840 240.000
v -95.000 0.000 240.000
v -76.857 -55.840 240.000
v -29.357 -90.350 240.000
v 29.357 -90.350 240.000
v 76.857 -55.840 240.000
v 0.000 0.000 420.000
usemtl trunk
f 1 2 10 9
f 2 3 11 10
f 3 4 12 11
f 4 5 13 12
f 5 6 14 13
f 6 7 15 14
f 7 8 16 15
f 8 1 9 16
f 8 7 6 5 4 3 2 1
f 9 10 11 12 13 14 15 16
usemtl canopy
f 17 18 27
f 18 19 27
f 19 20 27
f 20 21 27
f 21 22 27
f 22 23 27
f 23 24 27
f 24 25 27
f 25 26 27
f 26 17 27
f 26 25 24 23 22 21 20 19 18 17
f 28 29 38
f 29 30 38
f 30 31 38
f 31 32 38
f 32 33 38
f 33 34 38
f 34 35 38
f 35 36 38
f 36 37 38
f 37 28 38
f 37 36 35 34 33 32 31 30 29 28
