o SM_TreeRound
v 14.000 0.000 0.000
v 9.899 9.899 0.000
v 0.000 14.000 0.000
v -9.899 9.899 0.000
v -14.000 0.000 0.000
v -9.899 -9.899 0.000
v -0.000 -14.000 0.000
v 9.899 -9.899 0.000
v 14.000 0.000 160.000
v 9.899 9.899 160.000
v 0.000 14.000 160.000
v -9.899 9.899 160.000
v -14.000 0.000 160.000
v -9.899 -9.899 160.000
v -0.000 -14.000 160.000
v 9.899 -9.899 160.000
v 0.000 0.000 130.000
v 60.744 0.000 143.864
v 49.143 35.704 143.864
v 18.771 57.771 143.864
v -18.771 57.771 143.864
v -49.143 35.704 143.864
v -60.744 0.000 143.864
v -49.143 -35.704 143.864
v -18.771 -57.771 143.864
v 18.771 -57.771 143.864
v 49.143 -35.704 143.864
v 109.456 0.000 182.711
v 88.552 64.337 182.711
v 33.824 104.099 182.711
v -33.824 104.099 182.711
v -88.552 64.337 182.711
v -109.456 0.000 182.711
v -88.552 -64.337 182.711
v -33.824 -104.099 182.711
v 33.824 -104.099 182.711
v 88.552 -64.337 182.711
v 136.490 0.000 238.847
v 110.423 80.227 238.847
v 42.178 129.810 238.847
v -42.178 129.810 238.847
v -110.423 80.227 238.847
v -136.490 0.000 238.847
v -110.423 -80.227 238.847
v -42.178 -129.810 238.847
v 42.178 -129.810 238.847
v 110.423 -80.227 238.847
v 136.490 0.000 301.153
v 110.423 80.227 301.153
v 42.178 129.810 301.153
v -42.178 129.810 301.153
v -110.423 80.227 301.153
v -136.490 0.000 301.153
v -110.423 -80.227 301.153
v -42.178 -129.810 301.153
v 42.178 -129.810 301.153
v 110.423 -80.227 301.153
v 109.456 0.000 357.289
v 88.552 64.337 357.289
v 33.824 104.099 357.289
v -33.824 104.099 357.289
v -88.552 64.337 357.289
v -109.456 0.000 357.289
v -88.552 -64.337 357.289
v -33.824 -104.099 357.289
v 33.824 -104.099 357.289
v 88.552 -64.337 357.289
v 60.744 0.000 396.136
v 49.143 35.704 396.136
v 18.771 57.771 396.136
v -18.771 57.771 396.136
v -49.143 35.704 396.136
v -60.744 0.000 396.136
v -49.143 -35.704 396.136
v -18.771 -57.771 396.136
v 18.771 -57.771 396.136
v 49.143 -35.704 396.136
v 0.000 0.000 410.000
usemtl trunk
f 1 2 10 9
f 2 3 11 10
f 3 4 12 11
f 4 5 13 12
f 5 6 14 13
f 6 7 15 14
f 7 8 16 15
f 8 1 9 16
f 8 7 6 5 4 3 2 1
f 9 10 11 12 13 14 15 16
usemtl canopy
f 17 19 18
f 17 20 19
f 17 21 20
f 17 22 21
f 17 23 22
f 17 24 23
f 17 25 24
f 17 26 25
f 17 27 26
f 17 18 27
f 18 19 29 28
f 19 20 30 29
f 20 21 31 30
f 21 22 32 31
f 22 23 33 32
f 23 24 34 33
f 24 25 35 34
f 25 26 36 35
f 26 27 37 36
f 27 18 28 37
f 28 29 39 38
f 29 30 40 39
f 30 31 41 40
f 31 32 42 41
f 32 33 43 42
f 33 34 44 43
f 34 35 45 44
f 35 36 46 45
f 36 37 47 46
f 37 28 38 47
f 38 39 49 48
f 39 40 50 49
f 40 41 51 50
f 41 42 52 51
f 42 43 53 52
f 43 44 54 53
f 44 45 55 54
f 45 46 56 55
f 46 47 57 56
f 47 38 48 57
f 48 49 59 58
f 49 50 60 59
f 50 51 61 60
f 51 52 62 61
f 52 53 63 62
f 53 54 64 63
f 54 55 65 64
f 55 56 66 65
f 56 57 67 66
f 57 48 58 67
f 58 59 69 68
f 59 60 70 69
f 60 61 71 70
f 61 62 72 71
f 62 63 73 72
f 63 64 74 73
f 64 65 75 74
f 65 66 76 75
f 66 67 77 76
f 67 58 68 77
f 68 69 78
f 69 70 78
f 70 71 78
f 71 72 78
f 72 73 78
f 73 74 78
f 74 75 78
f 75 76 78
f 76 77 78
f 77 68 78
