o SM_Tower
v -175.000 -175.000 0.000
v 175.000 -175.000 0.000
v 175.000 175.000 0.000
v -175.000 175.000 0.000
v -175.000 -175.000 2000.000
v 175.000 -175.000 2000.000
v 175.000 175.000 2000.000
v -175.000 175.000 2000.000
v -180.000 -180.000 2000.000
v 180.000 -180.000 2000.000
v 180.000 180.000 2000.000
v -180.000 180.000 2000.000
v -180.000 -180.000 2030.000
v 180.000 -180.000 2030.000
v 180.000 180.000 2030.000
v -180.000 180.000 2030.000
usemtl glass
f 1 4 3 2
f 5 6 7 8
f 1 2 6 5
f 2 3 7 6
f 3 4 8 7
f 4 1 5 8
usemtl roofgray
f 9 12 11 10
f 13 14 15 16
f 9 10 14 13
f 10 11 15 14
f 11 12 16 15
f 12 9 13 16
